<svg xmlns="http://www.w3.org/2000/svg" viewBox="0 0 512 512" role="img" aria-labelledby="title desc">
  <title id="title">Sakura Study logo mark</title>
  <desc id="desc">A sakura-pink study mark with a math page, sigma symbol, and review check.</desc>
  <defs>
    <linearGradient id="bg" x1="72" y1="64" x2="448" y2="456" gradientUnits="userSpaceOnUse">
      <stop stop-color="#F178A9"/>
      <stop offset="0.52" stop-color="#EC4899"/>
      <stop offset="1" stop-color="#DB2777"/>
    </linearGradient>
    <linearGradient id="page" x1="154" y1="122" x2="360" y2="390" gradientUnits="userSpaceOnUse">
      <stop stop-color="#FFFFFF"/>
      <stop offset="1" stop-color="#FFF7FB"/>
    </linearGradient>
    <filter id="softShadow" x="-25%" y="-20%" width="150%" height="150%" color-interpolation-filters="sRGB">
      <feDropShadow dx="0" dy="18" stdDeviation="18" flood-color="#8F1358" flood-opacity="0.22"/>
    </filter>
  </defs>

  <rect x="28" y="28" width="456" height="456" rx="120" fill="url(#bg)"/>
  <path d="M132 390c46 34 142 47 244 9 35-13 55-36 66-63 7 67-32 119-100 139-82 24-181 3-242-47-13-11-7-31 12-34 7-1 14 1 20 6z" fill="#C91D72" opacity="0.16"/>

  <g filter="url(#softShadow)">
    <path d="M158 124h150l64 66v232H158c-22 0-40-18-40-40V164c0-22 18-40 40-40z" fill="url(#page)"/>
    <path d="M308 124v52c0 13 10 23 23 23h41l-64-75z" fill="#FCE7F1"/>
    <path d="M164 171h102" stroke="#F8B8D4" stroke-width="13" stroke-linecap="round"/>
    <path d="M164 209h82" stroke="#F8B8D4" stroke-width="13" stroke-linecap="round" opacity="0.72"/>
    <text x="248" y="324" text-anchor="middle" font-family="Inter, Arial, sans-serif" font-size="148" font-weight="850" fill="#DB2777">Σ</text>
    <path d="M201 361l31 30 75-83" fill="none" stroke="#10B981" stroke-width="24" stroke-linecap="round" stroke-linejoin="round"/>
  </g>

  <g transform="translate(374 132) rotate(-18)" fill="#FFFFFF" opacity="0.92">
    <path d="M0-36c20 7 30 22 26 39C11 2-2-11 0-36z"/>
    <path d="M30-10c8 19 3 36-12 44C9 19 12 5 30-10z"/>
    <path d="M18 35c-17 12-35 11-47-1 10-14 26-14 47 1z"/>
    <path d="M-34 16c-18-8-28-24-23-40 16-2 30 8 23 40z"/>
    <circle cx="0" cy="0" r="9" fill="#FFE4F0"/>
  </g>
</svg>
